<svg width="21" height="21" viewBox="0 0 21 21" fill="none" xmlns="http://www.w3.org/2000/svg">
<path d="M18.6967 6.83082C18.6967 7.38036 18.2471 7.82998 17.6976 7.82998H3.04311C2.49357 7.82998 2.04395 7.38036 2.04395 6.83082V6.82249C2.04395 4.91575 3.58433 3.37537 5.49107 3.37537L15.2413 3.37537C17.148 3.37537 18.6967 4.92407 18.6967 6.83082Z" fill="#1FCB4F"/>
<path d="M2.04395 10.0781V14.2496C2.04395 16.1563 3.58433 17.6967 5.49107 17.6967H15.2413C17.148 17.6967 18.6967 16.148 18.6967 14.2413V10.0781C18.6967 9.52854 18.2471 9.07892 17.6976 9.07892H3.04311C2.49357 9.07892 2.04395 9.52854 2.04395 10.0781ZM7.03978 14.9074H5.3745C5.03312 14.9074 4.75002 14.6243 4.75002 14.2829C4.75002 13.9415 5.03312 13.6584 5.3745 13.6584H7.03978C7.38116 13.6584 7.66426 13.9415 7.66426 14.2829C7.66426 14.6243 7.38116 14.9074 7.03978 14.9074ZM12.4519 14.9074H9.12138C8.77999 14.9074 8.4969 14.6243 8.4969 14.2829C8.4969 13.9415 8.77999 13.6584 9.12138 13.6584H12.4519C12.7933 13.6584 13.0764 13.9415 13.0764 14.2829C13.0764 14.6243 12.7933 14.9074 12.4519 14.9074Z" fill="#1FCB4F"/>
</svg>
