<svg width="21" height="21" viewBox="0 0 21 21" fill="none" xmlns="http://www.w3.org/2000/svg">
<path d="M10.7953 13.8H11.3365C11.8777 13.8 12.3273 13.317 12.3273 12.7342C12.3273 12.0098 12.0692 11.8682 11.6446 11.7184L10.8036 11.4269V13.8H10.7953Z" fill="#1FCB4F"/>
<path d="M10.1459 2.12642C5.54978 2.14307 1.82789 5.88162 1.84454 10.4778C1.86119 15.074 5.59974 18.7958 10.1959 18.7792C14.7921 18.7625 18.514 15.024 18.4973 10.4278C18.4807 5.83166 14.7421 2.11809 10.1459 2.12642ZM12.0527 10.5361C12.7021 10.7609 13.5764 11.2438 13.5764 12.7342C13.5764 14.0165 12.5689 15.049 11.3366 15.049H10.7954V15.5319C10.7954 15.8733 10.5123 16.1564 10.1709 16.1564C9.82955 16.1564 9.54645 15.8733 9.54645 15.5319V15.049H9.2467C7.88117 15.049 6.77376 13.8999 6.77376 12.4844C6.77376 12.1431 7.05686 11.86 7.39824 11.86C7.73962 11.86 8.02272 12.1431 8.02272 12.4844C8.02272 13.2088 8.57226 13.8 9.2467 13.8H9.54645V10.9857L8.28916 10.5361C7.6397 10.3113 6.76543 9.82833 6.76543 8.3379C6.76543 7.05564 7.77293 6.02317 9.00523 6.02317H9.54645V5.54024C9.54645 5.19885 9.82955 4.91576 10.1709 4.91576C10.5123 4.91576 10.7954 5.19885 10.7954 5.54024V6.02317H11.0952C12.4607 6.02317 13.5681 7.17221 13.5681 8.5877C13.5681 8.92908 13.285 9.21217 12.9436 9.21217C12.6022 9.21217 12.3191 8.92908 12.3191 8.5877C12.3191 7.8633 11.7696 7.27213 11.0952 7.27213H10.7954V10.0864L12.0527 10.5361Z" fill="#1FCB4F"/>
<path d="M8.02258 8.34617C8.02258 9.07056 8.2807 9.21211 8.70535 9.36199L9.54631 9.65341V7.27206H9.0051C8.46388 7.27206 8.02258 7.75499 8.02258 8.34617Z" fill="#1FCB4F"/>
</svg>
