<svg width="21" height="21" viewBox="0 0 21 21" fill="none" xmlns="http://www.w3.org/2000/svg">
<path d="M18.6235 7.33292V3.55274C18.6235 2.37872 18.0906 1.90411 16.7667 1.90411L13.4028 1.90411C12.0789 1.90411 11.5461 2.37872 11.5461 3.55274V7.32459C11.5461 8.50694 12.0789 8.97322 13.4028 8.97322H16.7667C18.0906 8.98154 18.6235 8.50694 18.6235 7.33292Z" fill="#1FCB4F"/>
<path d="M18.6235 16.7001V13.3362C18.6235 12.0124 18.0906 11.4795 16.7667 11.4795H13.4028C12.0789 11.4795 11.5461 12.0124 11.5461 13.3362V16.7001C11.5461 18.024 12.0789 18.5569 13.4028 18.5569H16.7667C18.0906 18.5569 18.6235 18.024 18.6235 16.7001Z" fill="#1FCB4F"/>
<path d="M9.04813 7.33292V3.55274C9.04813 2.37872 8.51525 1.90411 7.19135 1.90411L3.82749 1.90411C2.50359 1.90411 1.9707 2.37872 1.9707 3.55274L1.9707 7.32459C1.9707 8.50694 2.50359 8.97322 3.82749 8.97322H7.19135C8.51525 8.98154 9.04813 8.50694 9.04813 7.33292Z" fill="#1FCB4F"/>
<path d="M9.04813 16.7001V13.3362C9.04813 12.0124 8.51525 11.4795 7.19135 11.4795H3.82749C2.50359 11.4795 1.9707 12.0124 1.9707 13.3362L1.9707 16.7001C1.9707 18.024 2.50359 18.5569 3.82749 18.5569H7.19135C8.51525 18.5569 9.04813 18.024 9.04813 16.7001Z" fill="#1FCB4F"/>
</svg>
