<svg width="21" height="21" viewBox="0 0 21 21" fill="none" xmlns="http://www.w3.org/2000/svg">
<path d="M15.3762 14.9015H5.21799C3.28627 14.9015 2.17886 13.7941 2.17886 11.8623L2.17886 1.78741C2.17886 1.44603 2.46196 1.16293 2.80334 1.16293L17.7908 1.16293C18.1322 1.16293 18.4153 1.44603 18.4153 1.78741V11.8623C18.4153 13.7941 17.3079 14.9015 15.3762 14.9015ZM3.42782 2.41189V11.8623C3.42782 13.103 3.97736 13.6525 5.21799 13.6525H15.3679C16.6085 13.6525 17.158 13.103 17.158 11.8623V2.41189L3.42782 2.41189Z" fill="#A9A9A9"/>
<path d="M18.6235 2.41189L1.9707 2.41189C1.62932 2.41189 1.34622 2.12879 1.34622 1.78741C1.34622 1.44603 1.62932 1.16293 1.9707 1.16293L18.6235 1.16293C18.9649 1.16293 19.248 1.44603 19.248 1.78741C19.248 2.12879 18.9649 2.41189 18.6235 2.41189Z" fill="#A9A9A9"/>
<path d="M6.96678 19.0646C6.73364 19.0646 6.51714 18.9398 6.4089 18.7233C6.2507 18.4152 6.37562 18.0405 6.69202 17.8823L9.67286 16.3919V14.277C9.67286 13.9356 9.95595 13.6525 10.2973 13.6525C10.6387 13.6525 10.9218 13.9356 10.9218 14.277V16.7749C10.9218 17.008 10.7886 17.2245 10.5721 17.3328L7.24154 18.998C7.15828 19.0397 7.05837 19.0646 6.96678 19.0646Z" fill="#A9A9A9"/>
<path d="M13.6276 19.0646C13.536 19.0646 13.4361 19.0396 13.3529 18.998L10.0223 17.3327C9.71422 17.1745 9.5893 16.7998 9.73918 16.4918C9.89738 16.1837 10.2721 16.0588 10.5802 16.2087L13.9107 17.8739C14.2188 18.0321 14.3437 18.4068 14.1938 18.7149C14.0772 18.9397 13.8524 19.0646 13.6276 19.0646Z" fill="#A9A9A9"/>
<path d="M6.55018 9.90557C6.37532 9.90557 6.19215 9.83064 6.06726 9.68076C5.84244 9.41432 5.88405 9.02298 6.1505 8.79817L8.77333 6.60832C9.0148 6.40849 9.32286 6.32523 9.61428 6.37519C9.91403 6.42514 10.1722 6.6083 10.3304 6.87475L11.2046 8.33187L13.6442 6.30025C13.9107 6.08377 14.302 6.11705 14.5268 6.3835C14.7517 6.64994 14.71 7.04128 14.4436 7.26609L11.8208 9.45593C11.5793 9.65577 11.2712 9.73903 10.9798 9.68907C10.6801 9.63911 10.4219 9.45595 10.2637 9.18951L9.38948 7.73239L6.94985 9.76401C6.83328 9.8556 6.69172 9.90557 6.55018 9.90557Z" fill="#A9A9A9"/>
</svg>
