<svg width="16" height="16" viewBox="0 0 16 16" fill="none" xmlns="http://www.w3.org/2000/svg">
<path d="M7.64054 14.5574C4.11223 14.5574 1.23962 11.6848 1.23962 8.15648C1.23962 4.62817 4.11223 1.75557 7.64054 1.75557C11.1688 1.75557 14.0414 4.62817 14.0414 8.15648C14.0414 11.6848 11.1688 14.5574 7.64054 14.5574ZM7.64054 2.69229C4.6243 2.69229 2.17634 5.14649 2.17634 8.15648C2.17634 11.1665 4.6243 13.6207 7.64054 13.6207C10.6568 13.6207 13.1047 11.1665 13.1047 8.15648C13.1047 5.14649 10.6568 2.69229 7.64054 2.69229Z" fill="#9E9E9E"/>
<path d="M14.1976 15.1819C14.0789 15.1819 13.9603 15.1382 13.8666 15.0445L12.6176 13.7955C12.4365 13.6144 12.4365 13.3147 12.6176 13.1336C12.7987 12.9525 13.0985 12.9525 13.2796 13.1336L14.5285 14.3826C14.7096 14.5637 14.7096 14.8634 14.5285 15.0445C14.4349 15.1382 14.3162 15.1819 14.1976 15.1819Z" fill="#9E9E9E"/>
</svg>
