<svg width="21" height="21" viewBox="0 0 21 21" fill="none" xmlns="http://www.w3.org/2000/svg">
<path d="M14.4603 18.0714H6.1339C3.09476 18.0714 1.34622 16.3229 1.34622 13.2837V7.45528C1.34622 4.41614 3.09476 2.6676 6.1339 2.6676L14.4603 2.6676C17.4994 2.6676 19.248 4.41614 19.248 7.45528V13.2837C19.248 16.3229 17.4994 18.0714 14.4603 18.0714ZM6.1339 3.91656C3.75255 3.91656 2.59518 5.07393 2.59518 7.45528V13.2837C2.59518 15.6651 3.75255 16.8225 6.1339 16.8225H14.4603C16.8416 16.8225 17.999 15.6651 17.999 13.2837V7.45528C17.999 5.07393 16.8416 3.91656 14.4603 3.91656L6.1339 3.91656Z" fill="#A9A9A9"/>
<path d="M10.2969 11.0938C9.5975 11.0938 8.88976 10.8773 8.34854 10.436L5.74238 8.35445C5.47594 8.13797 5.42598 7.74662 5.64247 7.48018C5.85895 7.21373 6.2503 7.16378 6.51674 7.38027L9.12289 9.46186C9.7557 9.96977 10.8298 9.96977 11.4626 9.46186L14.0688 7.38027C14.3352 7.16378 14.7349 7.20541 14.943 7.48018C15.1595 7.74662 15.1179 8.14629 14.8431 8.35445L12.237 10.436C11.7041 10.8773 10.9963 11.0938 10.2969 11.0938Z" fill="#A9A9A9"/>
</svg>
