<svg width="21" height="21" viewBox="0 0 21 21" fill="none" xmlns="http://www.w3.org/2000/svg">
<path d="M10.2971 11.3661C7.65764 11.3661 5.50943 9.21791 5.50943 6.57844C5.50943 3.93898 7.65764 1.79077 10.2971 1.79077C12.9366 1.79077 15.0848 3.93898 15.0848 6.57844C15.0848 9.21791 12.9366 11.3661 10.2971 11.3661ZM10.2971 3.03973C8.34873 3.03973 6.75839 4.63007 6.75839 6.57844C6.75839 8.52682 8.34873 10.1172 10.2971 10.1172C12.2455 10.1172 13.8358 8.52682 13.8358 6.57844C13.8358 4.63007 12.2455 3.03973 10.2971 3.03973Z" fill="#A9A9A9"/>
<path d="M17.4496 19.6925C17.1082 19.6925 16.8251 19.4094 16.8251 19.068C16.8251 16.1954 13.8942 13.864 10.2972 13.864C6.70023 13.864 3.76934 16.1954 3.76934 19.068C3.76934 19.4094 3.48625 19.6925 3.14486 19.6925C2.80348 19.6925 2.52039 19.4094 2.52039 19.068C2.52039 15.5127 6.00914 12.6151 10.2972 12.6151C14.5853 12.6151 18.0741 15.5127 18.0741 19.068C18.0741 19.4094 17.791 19.6925 17.4496 19.6925Z" fill="#A9A9A9"/>
</svg>
