<svg width="21" height="21" viewBox="0 0 21 21" fill="none" xmlns="http://www.w3.org/2000/svg">
<path d="M19.0971 11.0523V12.7675C19.0971 13.2338 18.7141 13.6168 18.2395 13.6168H16.6325C15.7333 13.6168 14.909 12.959 14.834 12.0598C14.7841 11.5352 14.9839 11.0439 15.3336 10.7026C15.6417 10.3862 16.0663 10.203 16.5326 10.203H18.2395C18.7141 10.203 19.0971 10.586 19.0971 11.0523Z" fill="#1FCB4F"/>
<path d="M13.5849 12.168C13.5099 11.2938 13.8263 10.4362 14.4591 9.81167C14.992 9.27046 15.7331 8.95405 16.5324 8.95405H17.007C17.2401 8.95405 17.4317 8.76255 17.3983 8.52941C17.1735 6.91409 15.7747 5.66513 14.1011 5.66513H5.77471C3.93458 5.66513 2.44415 7.15555 2.44415 8.99569L2.44415 14.8242C2.44415 16.6643 3.93458 18.1547 5.77471 18.1547H14.1011C15.783 18.1547 17.1735 16.9058 17.3983 15.2904C17.4317 15.0573 17.2401 14.8658 17.007 14.8658H16.6323C15.0503 14.8658 13.7181 13.6834 13.5849 12.168ZM11.6032 10.4528H6.60735C6.26597 10.4528 5.98287 10.178 5.98287 9.82832C5.98287 9.47862 6.26597 9.20385 6.60735 9.20385H11.6032C11.9446 9.20385 12.2277 9.48694 12.2277 9.82832C12.2277 10.1697 11.9446 10.4528 11.6032 10.4528Z" fill="#1FCB4F"/>
<path d="M12.6108 3.85827C12.8273 4.08308 12.6357 4.41614 12.3193 4.41614H5.79978C4.8922 4.41614 4.04291 4.68258 3.33517 5.14053C3.01044 5.34869 2.56914 5.12388 2.72734 4.76585C3.19362 3.67509 4.28438 2.91739 5.54166 2.91739H10.2211C11.187 2.91739 12.0446 3.25877 12.6108 3.85827Z" fill="#1FCB4F"/>
</svg>
