<svg width="21" height="21" viewBox="0 0 21 21" fill="none" xmlns="http://www.w3.org/2000/svg">
<path d="M10.5213 2.38446L8.51466 7.05557H6.508C6.17495 7.05557 5.85022 7.08055 5.53381 7.14716L6.36645 5.14883L6.39976 5.07389L6.44972 4.94067C6.4747 4.88238 6.49135 4.83242 6.51633 4.79079C7.48219 2.55099 8.56462 1.85158 10.5213 2.38446Z" fill="#1FCB4F"/>
<path d="M16.1749 7.28044L16.1582 7.27211C15.6586 7.13056 15.1507 7.05563 14.6345 7.05563H9.42218L11.2956 2.70092L11.3206 2.64264C11.4372 2.68427 11.5621 2.74256 11.687 2.78419L13.5271 3.55854C14.5512 3.98319 15.2673 4.42449 15.7086 4.95738C15.7835 5.05729 15.8502 5.14888 15.9168 5.25713C15.9917 5.37369 16.05 5.49026 16.0833 5.61516C16.1166 5.6901 16.1416 5.75671 16.1582 5.83165C16.2831 6.25629 16.2915 6.73922 16.1749 7.28044Z" fill="#1FCB4F"/>
<path d="M11.0042 15.2487H11.2123C11.4621 15.2487 11.6703 15.0239 11.6703 14.7492C11.6703 14.3994 11.5703 14.3495 11.3539 14.2662L11.0042 14.1413V15.2487Z" fill="#1FCB4F"/>
<path d="M15.8086 8.47106C15.4339 8.36282 15.0426 8.30453 14.6346 8.30453H6.50804C5.94185 8.30453 5.40896 8.41278 4.90937 8.62926C3.46058 9.25374 2.44476 10.6942 2.44476 12.3678V13.9915C2.44476 14.1913 2.46142 14.3828 2.4864 14.5826C2.66958 17.2304 4.08506 18.6459 6.73285 18.8208C6.92436 18.8457 7.11587 18.8624 7.32403 18.8624H13.8186C16.8994 18.8624 18.523 17.397 18.6812 14.4827C18.6895 14.3245 18.6979 14.158 18.6979 13.9915V12.3678C18.6979 10.5277 17.4739 8.97897 15.8086 8.47106ZM11.6371 13.4502C12.0201 13.5835 12.5363 13.8666 12.5363 14.7492C12.5363 15.5069 11.9452 16.1147 11.2125 16.1147H11.0043V16.2979C11.0043 16.5393 10.8128 16.7308 10.5713 16.7308C10.3299 16.7308 10.1383 16.5393 10.1383 16.2979V16.1147H10.0634C9.26408 16.1147 8.60629 15.4402 8.60629 14.6076C8.60629 14.3661 8.7978 14.1746 9.03926 14.1746C9.28073 14.1746 9.47224 14.3661 9.47224 14.6076C9.47224 14.9573 9.73868 15.2487 10.0634 15.2487H10.1383V13.8416L9.50554 13.6168C9.12253 13.4835 8.60629 13.2005 8.60629 12.3179C8.60629 11.5602 9.19746 10.9523 9.93019 10.9523H10.1383V10.7691C10.1383 10.5277 10.3299 10.3362 10.5713 10.3362C10.8128 10.3362 11.0043 10.5277 11.0043 10.7691V10.9523H11.0792C11.8786 10.9523 12.5363 11.6268 12.5363 12.4594C12.5363 12.7009 12.3448 12.8924 12.1034 12.8924C11.8619 12.8924 11.6704 12.7009 11.6704 12.4594C11.6704 12.1097 11.404 11.8183 11.0792 11.8183H11.0043V13.2254L11.6371 13.4502Z" fill="#1FCB4F"/>
<path d="M9.47223 12.3179C9.47223 12.6677 9.57215 12.7176 9.78863 12.8009L10.1383 12.9258V11.8184H9.93018C9.67206 11.8184 9.47223 12.0432 9.47223 12.3179Z" fill="#1FCB4F"/>
</svg>
