<svg width="21" height="21" viewBox="0 0 21 21" fill="none" xmlns="http://www.w3.org/2000/svg">
<path d="M12.3787 14.4411H8.21551C7.87413 14.4411 7.59103 14.158 7.59103 13.8166C7.59103 13.4752 7.87413 13.1921 8.21551 13.1921H12.3787C12.7201 13.1921 13.0032 13.4752 13.0032 13.8166C13.0032 14.158 12.7201 14.4411 12.3787 14.4411Z" fill="#A9A9A9"/>
<path d="M4.6353 9.20381C4.4771 9.20381 4.3189 9.1372 4.19401 9.02063C4.01915 8.84578 3.96087 8.57101 4.06078 8.33787L5.60949 4.64095C5.6428 4.56601 5.65945 4.51605 5.68443 4.47442C6.91674 1.63512 8.49042 0.944033 11.2714 2.00981C11.4296 2.0681 11.5545 2.19299 11.6211 2.35119C11.6878 2.50939 11.6878 2.68425 11.6211 2.84245L9.18151 8.50439C9.0816 8.72921 8.85678 8.87908 8.60699 8.87908H6.23397C5.75937 8.87908 5.30974 8.97067 4.87677 9.15385C4.80183 9.18716 4.71857 9.20381 4.6353 9.20381ZM9.13988 2.78416C8.10741 2.78416 7.4746 3.4586 6.81682 4.99066C6.80849 5.01564 6.79184 5.04062 6.78351 5.0656L5.69276 7.6551C5.87594 7.63845 6.05079 7.63012 6.23397 7.63012H8.19067L10.1973 2.96735C9.80599 2.84245 9.45628 2.78416 9.13988 2.78416Z" fill="#A9A9A9"/>
<path d="M15.5346 9.04561C15.4763 9.04561 15.4097 9.03728 15.3514 9.02063C15.0433 8.92904 14.7019 8.87908 14.3522 8.87908H8.60702C8.39886 8.87908 8.19903 8.77084 8.08246 8.59599C7.97422 8.42113 7.94924 8.19632 8.0325 8.00481L10.4472 2.40115C10.5721 2.1014 10.9301 1.90157 11.2465 2.00149C11.3464 2.03479 11.438 2.07642 11.5379 2.11806L13.5029 2.94237C14.652 3.41697 15.418 3.91656 15.9176 4.51606C16.0175 4.63262 16.1008 4.75752 16.1757 4.88242C16.2673 5.02397 16.3506 5.19882 16.4088 5.37367C16.4338 5.43196 16.4755 5.5402 16.5004 5.65677C16.7336 6.43945 16.617 7.41364 16.1174 8.6626C16.0175 8.89574 15.7844 9.04561 15.5346 9.04561ZM9.55623 7.63012H14.3606C14.627 7.63012 14.8851 7.6551 15.1432 7.69674C15.3764 6.97234 15.4263 6.41447 15.2931 5.96485C15.2765 5.88991 15.2598 5.8566 15.2515 5.8233C15.2015 5.69008 15.1682 5.61514 15.1266 5.54853C15.0683 5.45694 15.0267 5.382 14.9601 5.30706C14.602 4.87409 13.9692 4.47442 13.0283 4.09141L11.3797 3.40032L9.55623 7.63012Z" fill="#A9A9A9"/>
<path d="M13.5444 19.4369H7.0498C6.81666 19.4369 6.60017 19.4202 6.38369 19.3953C3.46113 19.1954 1.79585 17.5301 1.59601 14.5743C1.57104 14.3911 1.55438 14.1663 1.55438 13.9415V12.3178C1.55438 10.4444 2.67012 8.75413 4.39368 8.00475C4.97653 7.75496 5.60101 7.63007 6.24214 7.63007H14.3687C14.8433 7.63007 15.3013 7.69668 15.7259 7.8299C17.6826 8.42107 19.0565 10.2695 19.0565 12.3178V13.9415C19.0565 14.1246 19.0481 14.2995 19.0398 14.466C18.8566 17.7217 16.9582 19.4369 13.5444 19.4369ZM6.23381 8.87902C5.75921 8.87902 5.30958 8.97061 4.87661 9.1538C3.611 9.70334 2.79501 10.944 2.79501 12.3178V13.9415C2.79501 14.1163 2.81167 14.2912 2.82832 14.4577C2.98652 16.8307 4.15222 17.9964 6.49193 18.1546C6.70009 18.1796 6.86662 18.1963 7.04147 18.1963H13.5361C16.2838 18.1963 17.6326 16.9889 17.7659 14.4077C17.7742 14.2579 17.7825 14.108 17.7825 13.9415V12.3178C17.7825 10.8107 16.775 9.46187 15.3429 9.02057C15.0348 8.92898 14.6934 8.87902 14.3437 8.87902H6.23381Z" fill="#A9A9A9"/>
<path d="M2.17074 12.9424C1.82936 12.9424 1.54626 12.6593 1.54626 12.3179V9.87827C1.54626 7.25546 3.40305 4.99068 5.96758 4.4911C6.19239 4.44947 6.42553 4.53273 6.5754 4.70758C6.71695 4.88244 6.75858 5.13223 6.66699 5.34039L5.20988 8.82082C5.14326 8.97069 5.0267 9.08726 4.88515 9.15387C3.61954 9.70342 2.80355 10.944 2.80355 12.3179C2.79522 12.6593 2.52045 12.9424 2.17074 12.9424ZM4.96841 6.17303C3.90263 6.77253 3.12828 7.82165 2.88681 9.04563C3.25317 8.67094 3.67782 8.35454 4.16075 8.1214L4.96841 6.17303Z" fill="#A9A9A9"/>
<path d="M18.4238 12.9424C18.0824 12.9424 17.7993 12.6593 17.7993 12.3179C17.7993 10.8108 16.7918 9.46195 15.3597 9.02065C15.1931 8.9707 15.0516 8.85413 14.9766 8.69592C14.9017 8.53772 14.8934 8.35454 14.96 8.19634C15.3513 7.22215 15.4512 6.51441 15.293 5.96487C15.2764 5.88993 15.2597 5.85663 15.2514 5.82332C15.1432 5.58186 15.2015 5.29876 15.393 5.11558C15.5845 4.9324 15.8759 4.89076 16.109 5.01566C17.9242 5.96487 19.0482 7.82998 19.0482 9.87827V12.3179C19.0482 12.6593 18.7652 12.9424 18.4238 12.9424ZM16.3338 8.06312C16.8584 8.30458 17.3247 8.64597 17.716 9.05396C17.5578 8.23797 17.1665 7.49692 16.592 6.91408C16.5503 7.26379 16.4671 7.6468 16.3338 8.06312Z" fill="#A9A9A9"/>
</svg>
