<svg width="21" height="21" viewBox="0 0 21 21" fill="none" xmlns="http://www.w3.org/2000/svg">
<path d="M11.1297 8.98492H6.13391C5.79253 8.98492 5.50943 8.70182 5.50943 8.36044C5.50943 8.01906 5.79253 7.73596 6.13391 7.73596H11.1297C11.4711 7.73596 11.7542 8.01906 11.7542 8.36044C11.7542 8.70182 11.4711 8.98492 11.1297 8.98492Z" fill="#A9A9A9"/>
<path d="M16.1588 13.1897C14.9015 13.1897 13.8357 12.2571 13.7358 11.0581C13.6692 10.367 13.919 9.69261 14.4186 9.20135C14.8349 8.76838 15.426 8.52692 16.0505 8.52692H17.7908C18.6151 8.5519 19.2479 9.20132 19.2479 10.0007V11.7159C19.2479 12.5153 18.6151 13.1647 17.8158 13.1897H16.1588ZM17.7658 9.77587H16.0589C15.7674 9.77587 15.501 9.88411 15.3095 10.0839C15.0681 10.3171 14.9515 10.6335 14.9848 10.9499C15.0264 11.4994 15.5593 11.9407 16.1588 11.9407H17.7908C17.899 11.9407 17.9989 11.8408 17.9989 11.7159V10.0007C17.9989 9.87576 17.899 9.7842 17.7658 9.77587Z" fill="#A9A9A9"/>
<path d="M13.6276 18.5603H6.1339C3.26962 18.5603 1.34622 16.6369 1.34622 13.7726V7.94411C1.34622 5.37958 2.92822 3.5228 5.3845 3.21472C5.60931 3.18142 5.86745 3.15643 6.1339 3.15643L13.6276 3.15643C13.8275 3.15643 14.0856 3.16476 14.352 3.20639C16.8083 3.48949 18.4153 5.3546 18.4153 7.94411V9.15144C18.4153 9.49283 18.1322 9.77592 17.7908 9.77592H16.0589C15.7675 9.77592 15.5011 9.88416 15.3096 10.084L15.3013 10.0923C15.0681 10.3171 14.9599 10.6252 14.9849 10.9416C15.0265 11.4911 15.5594 11.9324 16.1588 11.9324H17.7908C18.1322 11.9324 18.4153 12.2155 18.4153 12.5569V13.7642C18.4153 16.6368 16.4919 18.5603 13.6276 18.5603ZM6.1339 4.40539C5.93406 4.40539 5.74255 4.42203 5.55104 4.44701C3.71923 4.68015 2.59518 6.01238 2.59518 7.94411V13.7726C2.59518 15.9208 3.98569 17.3113 6.1339 17.3113H13.6276C15.7759 17.3113 17.1664 15.9208 17.1664 13.7726V13.1897H16.1588C14.9016 13.1897 13.8358 12.2572 13.7359 11.0582C13.6693 10.3754 13.9191 9.69266 14.4187 9.20973C14.8516 8.76844 15.4345 8.52696 16.0589 8.52696H17.1664V7.94411C17.1664 5.99573 16.0256 4.65516 14.1772 4.43868C13.9773 4.40537 13.8025 4.40539 13.6276 4.40539H6.1339Z" fill="#A9A9A9"/>
</svg>
